<svg width="183" height="172" viewBox="0 0 183 172" fill="none" xmlns="http://www.w3.org/2000/svg">
<path d="M3.14809 8.0502H14.6509C16.1322 3.38872 20.5068 0.000369815 25.6605 0.000369815C32.0278 0.000369815 37.2085 5.17162 37.2085 11.528C37.2085 17.884 32.0281 23.0556 25.6605 23.0556C20.2627 23.0556 15.7193 19.3387 14.4606 14.3349H6.29579V42.7211C6.29579 64.107 23.7248 81.5052 45.1485 81.5052C66.5722 81.5052 84.0012 64.107 84.0012 42.7211V14.3345H76.5089C75.2502 19.3383 70.7068 23.0553 65.309 23.0553C58.9418 23.0553 53.761 17.884 53.761 11.5276C53.761 5.17162 58.9414 0 65.309 0C70.4628 0 74.8373 3.38835 76.3186 8.04983H87.1489C88.8872 8.04983 90.2967 9.45677 90.2967 11.192V42.7203C90.2967 66.5101 71.7352 86.051 48.3099 87.6764V107.427C48.3099 121.198 59.5335 132.401 73.329 132.401C87.0234 132.401 98.1648 121.012 98.1648 107.012V58.3491C98.1648 41.1127 112.171 27.0902 129.387 27.0902C146.654 27.0902 160.702 41.113 160.702 58.3491V121.654C173.242 123.146 183 133.821 183 146.734C183 160.666 171.646 172 157.69 172C143.733 172 132.379 160.666 132.379 146.734C132.379 133.914 141.997 123.301 154.406 121.688V58.3487C154.406 44.5776 143.183 33.3741 129.387 33.3741C115.642 33.3741 104.46 44.5779 104.46 58.3487V107.012C104.46 124.477 90.4944 138.685 73.3287 138.685C56.0618 138.685 42.0141 124.663 42.0141 107.427V87.6783C18.5759 86.0662 0 66.5198 0 42.7203V11.1924C0.000366211 9.45677 1.40981 8.0502 3.14809 8.0502ZM25.6605 16.771C28.5567 16.771 30.9131 14.4192 30.9131 11.5276C30.9131 8.63612 28.5571 6.28431 25.6605 6.28431C22.7642 6.28431 20.4079 8.63612 20.4079 11.5276C20.4079 14.4192 22.7642 16.771 25.6605 16.771ZM65.309 6.28431C62.4128 6.28431 60.0564 8.63612 60.0564 11.5276C60.0564 14.4192 62.4124 16.771 65.309 16.771C68.2053 16.771 70.5616 14.4192 70.5616 11.5276C70.5616 8.63612 68.2053 6.28431 65.309 6.28431ZM138.675 146.734C138.675 157.201 147.205 165.716 157.69 165.716C168.175 165.716 176.705 157.2 176.705 146.734C176.705 136.268 168.175 127.753 157.69 127.753C147.205 127.753 138.675 136.268 138.675 146.734Z" fill="#70A2FF"/>
</svg>
