<svg width="75" height="115" viewBox="0 0 75 115" fill="none" xmlns="http://www.w3.org/2000/svg">
<path d="M66.7951 0H7.28047C3.26579 0 0 3.26603 0 7.28072V107.719C0 111.734 3.26603 115 7.28071 115H66.7951C70.8098 115 74.0758 111.734 74.0758 107.719V7.28072C74.0756 3.26603 70.8098 0 66.7951 0ZM3.64838 18.2993H70.4274V94.3528H3.64838V18.2993ZM7.28047 3.64838H66.7951C68.7978 3.64838 70.4274 5.27775 70.4274 7.28072V15.8671H3.64838V7.28072C3.64838 5.27775 5.27775 3.64838 7.28047 3.64838ZM66.7951 111.351H7.28047C5.27775 111.351 3.64814 109.722 3.64814 107.719V96.7848H70.4272V107.719C70.4272 109.722 68.7978 111.351 66.7951 111.351Z" fill="#F7D8DD"/>
<path d="M37.0371 98.3974C33.7426 98.3974 31.0625 101.078 31.0625 104.372C31.0625 107.667 33.7428 110.347 37.0371 110.347C40.3313 110.347 43.0117 107.666 43.0117 104.372C43.0117 101.078 40.3316 98.3974 37.0371 98.3974ZM37.0371 107.915C35.0838 107.915 33.4948 106.325 33.4948 104.372C33.4948 102.419 35.0838 100.83 37.0371 100.83C38.9904 100.83 40.5794 102.419 40.5794 104.372C40.5794 106.325 38.9904 107.915 37.0371 107.915Z" fill="#F7D8DD"/>
<path d="M28.7708 11.5885H45.3102C45.9819 11.5885 46.5263 11.0439 46.5263 10.3724C46.5263 9.70083 45.9819 9.15625 45.3102 9.15625H28.7708C28.099 9.15625 27.5547 9.70083 27.5547 10.3724C27.5547 11.0439 28.099 11.5885 28.7708 11.5885Z" fill="#F7D8DD"/>
<path d="M24.3919 11.5885C24.7105 11.5885 25.0243 11.4596 25.2505 11.2334C25.4767 11.0048 25.608 10.6934 25.608 10.3724C25.608 10.0513 25.4767 9.73999 25.2505 9.51136C25.0241 9.28516 24.7103 9.15625 24.3919 9.15625C24.0709 9.15625 23.7593 9.28516 23.5309 9.51136C23.3047 9.73756 23.1758 10.0513 23.1758 10.3724C23.1758 10.6934 23.3047 11.0048 23.5309 11.2334C23.7571 11.4596 24.0709 11.5885 24.3919 11.5885Z" fill="#F7D8DD"/>
</svg>
