<svg width="75" height="75" viewBox="0 0 75 75" fill="none" xmlns="http://www.w3.org/2000/svg">
<path d="M73.8193 63.4684L69.7916 70.1822C68.901 71.7079 67.4542 72.8293 65.7545 73.3111C61.9093 74.3686 56.701 74.5007 50.0083 72.0884C49.9022 72.0289 49.7882 71.9844 49.6699 71.9562C42.2673 69.208 32.4153 63.3509 21.2494 52.1891C-0.244177 30.6967 -1.43508 16.4879 0.797605 8.3545C1.2803 6.65548 2.40152 5.20881 3.92643 4.31747L11.3013 0.289746C12.2281 -0.267918 13.4296 0.00239392 14.0283 0.903021L19.1836 8.97425L24.7264 16.9571C25.311 17.8411 25.1189 19.026 24.2849 19.6802L18.2743 24.3556C16.4452 25.7542 15.9228 27.6239 17.049 29.6324L17.5263 30.4996C19.2157 33.5981 20.655 36.7916 28.3233 44.4585C35.9915 52.1253 39.1838 54.2259 42.2809 55.9151L43.1493 56.3936C45.1577 57.5196 47.6886 57.6585 49.0872 55.8293L53.7626 49.8188C54.417 48.9852 55.6014 48.7933 56.4858 49.3773L64.8433 54.4004L73.2009 60.7455C74.1017 61.3419 74.3742 62.5413 73.8193 63.4684Z" fill="white"/>
</svg>
