<svg width="36" height="31" viewBox="0 0 36 31" fill="none" xmlns="http://www.w3.org/2000/svg">
<path d="M35.0835 21.3556C34.5775 21.3556 34.1671 21.7546 34.1671 22.2468V25.6524C34.1671 27.6182 32.5226 29.2175 30.5014 29.2175H5.49865C3.47738 29.2175 1.83291 27.6182 1.83291 25.6524V22.2468C1.83291 21.7546 1.42263 21.3556 0.916453 21.3556C0.410273 21.3556 0 21.7546 0 22.2468V25.6524C0 28.6011 2.4667 31 5.49865 31H30.5014C33.5333 31 36 28.6011 36 25.6524V22.2468C36 21.7546 35.5897 21.3556 35.0835 21.3556Z" fill="#9B51E0"/>
<path d="M29.4427 25.4889H6.5574C6.05473 25.4889 5.64706 25.7973 5.64706 26.1778C5.64706 26.5583 6.05459 26.8667 6.5574 26.8667H29.4426C29.9454 26.8667 30.3529 26.5583 30.3529 26.1778C30.3529 25.7973 29.9454 25.4889 29.4427 25.4889Z" fill="#9B51E0"/>
<path d="M27.2228 7.26236L19.5297 0.569059C18.6576 -0.189618 17.3425 -0.189755 16.4703 0.569059L8.7772 7.26229C8.39886 7.59136 8.36617 8.15685 8.70412 8.52531C9.04201 8.89363 9.62258 8.92575 10.0011 8.59648L17.0817 2.43621V19.7722C17.0817 20.2662 17.493 20.6667 18.0001 20.6667C18.5074 20.6667 18.9186 20.2662 18.9186 19.7722V2.43621L25.9992 8.59648C26.1744 8.7489 26.393 8.82398 26.6107 8.82398C26.8632 8.82398 27.1145 8.72316 27.296 8.52538C27.6338 8.15692 27.6011 7.59157 27.2228 7.26236Z" fill="#9B51E0"/>
</svg>
