<svg width="133" height="124" viewBox="0 0 133 124" fill="none" xmlns="http://www.w3.org/2000/svg">
<path d="M72.0226 0H7.85025C3.52137 0 0 3.52164 0 7.85051V116.149C0 120.478 3.52164 124 7.85051 124H72.0226C76.3514 124 79.8731 120.478 79.8731 116.149V7.85051C79.8728 3.52164 76.3514 0 72.0226 0ZM3.93391 19.7314H75.9392V101.737H3.93391V19.7314ZM7.85025 3.93391H72.0226C74.182 3.93391 75.9392 5.69079 75.9392 7.85051V17.1088H3.93391V7.85051C3.93391 5.69079 5.69079 3.93391 7.85025 3.93391ZM72.0226 120.066H7.85025C5.69079 120.066 3.93365 118.309 3.93365 116.149V104.359H75.9389V116.149C75.9389 118.309 74.182 120.066 72.0226 120.066Z" fill="#EA8190"/>
<path d="M39.9344 106.098C36.382 106.098 33.4922 108.988 33.4922 112.541C33.4922 116.093 36.3823 118.983 39.9344 118.983C43.4864 118.983 46.3765 116.093 46.3765 112.541C46.3765 108.989 43.4867 106.098 39.9344 106.098ZM39.9344 116.36C37.8281 116.36 36.1148 114.647 36.1148 112.541C36.1148 110.434 37.8281 108.721 39.9344 108.721C42.0406 108.721 43.7539 110.434 43.7539 112.541C43.7539 114.647 42.0406 116.36 39.9344 116.36Z" fill="#EA8190"/>
<path d="M31.0222 12.4954H48.856C49.5803 12.4954 50.1673 11.9082 50.1673 11.1841C50.1673 10.46 49.5803 9.8728 48.856 9.8728H31.0222C30.2979 9.8728 29.7109 10.46 29.7109 11.1841C29.7109 11.9082 30.2979 12.4954 31.0222 12.4954Z" fill="#EA8190"/>
<path d="M26.2996 12.4954C26.6431 12.4954 26.9815 12.3564 27.2254 12.1125C27.4693 11.866 27.6109 11.5303 27.6109 11.1841C27.6109 10.8379 27.4693 10.5022 27.2254 10.2557C26.9812 10.0118 26.6429 9.8728 26.2996 9.8728C25.9534 9.8728 25.6174 10.0118 25.3712 10.2557C25.1273 10.4996 24.9883 10.8379 24.9883 11.1841C24.9883 11.5303 25.1273 11.866 25.3712 12.1125C25.6151 12.3564 25.9534 12.4954 26.2996 12.4954Z" fill="#EA8190"/>
<path d="M70.5551 75.987C67.6108 75.987 65.2167 73.662 65.2167 70.8024V35.4009C65.2167 32.5435 67.6108 30.2185 70.5551 30.2185H124.443C127.387 30.2185 129.781 32.5435 129.781 35.4009V70.8024C129.781 73.662 127.387 75.987 124.443 75.987H90.9512L75.1437 90.0506L75.0727 75.987H70.5551Z" fill="white"/>
<path d="M69.5573 27H125.443C129.61 27 133 30.3189 133 34.4009V71.8024C133 75.8844 129.61 79.2055 125.443 79.2055H91.8032L71.9536 97L71.8649 79.2055H69.5573C65.3904 79.2055 62 75.8844 62 71.8024V34.4009C62 30.3189 65.3904 27 69.5573 27ZM65.2166 70.8024C65.2166 73.662 67.6107 75.987 70.5551 75.987H75.0726L75.1436 90.0506L90.9512 75.987H124.443C127.387 75.987 129.781 73.662 129.781 70.8024V35.4009C129.781 32.5435 127.387 30.2185 124.443 30.2185H70.5551C67.6107 30.2185 65.2166 32.5435 65.2166 35.4009V70.8024Z" fill="#EA8190"/>
<path d="M85 37V68L113 52.5011L85 37ZM88.2562 41.7949L107.404 52.5011L88.2562 63.2073V41.7949Z" fill="#EA8190"/>
</svg>
